<svg width="202" height="57" viewBox="0 0 202 57" fill="none" xmlns="http://www.w3.org/2000/svg">
<path d="M46.3708 22.5632H47.5607V21.3733H46.3708V22.5632ZM46.3708 24.4594V25.6493H47.5607V24.4594H46.3708ZM39.1034 24.4594H37.9135V25.6493H39.1034V24.4594ZM39.1034 22.5632V21.3733H37.9135V22.5632H39.1034ZM41.2215 19.0742V17.8843H40.0316V19.0742H41.2215ZM43.3762 19.0742H44.5661V17.8843H43.3762V19.0742ZM43.6409 34.3765L42.6021 34.9567L42.6089 34.9688L42.6159 34.9808L43.6409 34.3765ZM44.3348 35.0022L43.9085 36.1131L43.9233 36.1188L43.9382 36.1241L44.3348 35.0022ZM45.823 35.116L46.018 36.2898L46.0416 36.2859L46.0649 36.281L45.823 35.116ZM46.1882 35.0401L47.3508 34.7867L47.0998 33.6355L45.9462 33.8751L46.1882 35.0401ZM46.6264 37.0501L47.0582 38.1589L48.0056 37.79L47.789 36.7966L46.6264 37.0501ZM46.0147 37.2208L45.762 36.058L45.7486 36.0609L45.7354 36.0641L46.0147 37.2208ZM43.2301 36.9079L42.7239 37.9848L42.7283 37.9868L43.2301 36.9079ZM41.7876 35.6659L40.8029 36.334L40.8079 36.3413L41.7876 35.6659ZM49.6119 37.126H48.4219V38.3159H49.6119V37.126ZM49.6119 22.5632V21.3733H48.4219V22.5632H49.6119ZM51.6935 22.5632H52.8834V21.3733H51.6935V22.5632ZM51.6935 24.7628H50.5035V25.9527H51.6935V24.7628ZM51.8395 24.7628V25.9527H52.68L52.9609 25.1606L51.8395 24.7628ZM53.2273 23.0088L52.5648 22.0204L53.2273 23.0088ZM56.6236 22.3736H57.8135V21.3008L56.7465 21.19L56.6236 22.3736ZM56.6236 24.649L56.3246 25.8007L57.8135 26.1873V24.649H56.6236ZM56.1214 24.5637L55.9185 25.7361L55.9346 25.7389L55.9508 25.7413L56.1214 24.5637ZM53.4829 24.9429L54.0556 25.9859L54.06 25.9835L53.4829 24.9429ZM52.223 26.1565L51.2022 25.5451L51.2001 25.5485L52.223 26.1565ZM51.7665 37.126V38.3159H52.9564V37.126H51.7665ZM60.0153 42.4922L60.272 41.3303L60.2597 41.3276L60.2474 41.3251L60.0153 42.4922ZM59.4218 42.3215L58.2754 42.0031L58.0171 42.9329L58.8735 43.3776L59.4218 42.3215ZM59.9696 40.3495L60.2752 39.1995L59.138 38.8974L58.8232 40.031L59.9696 40.3495ZM61.3574 40.5012L61.2455 39.3166L61.3574 40.5012ZM62.4256 39.9418L61.5685 39.1164L61.5605 39.1247L61.5528 39.1331L62.4256 39.9418ZM63.2929 38.3395L64.4146 38.7365L64.4149 38.7357L63.2929 38.3395ZM63.6946 37.2018L64.8166 37.598L64.9567 37.2012L64.8162 36.8045L63.6946 37.2018ZM58.5089 22.5632V21.3733H56.825L57.3873 22.9605L58.5089 22.5632ZM60.8461 22.5632L61.9749 22.1867L61.7035 21.3733H60.8461V22.5632ZM64.7172 34.1679L63.5884 34.5444L63.8597 35.3578H64.7172V34.1679ZM64.8632 34.1679V35.3578H65.7207L65.992 34.5444L64.8632 34.1679ZM68.7343 22.5632V21.3733H67.8768L67.6055 22.1867L68.7343 22.5632ZM71.0715 22.5632L72.1922 22.963L72.7593 21.3733H71.0715V22.5632ZM65.1189 39.2497L63.9981 38.8499L63.9979 38.8506L65.1189 39.2497ZM64.1237 41.1175L63.1957 40.3727L63.1911 40.3785L64.1237 41.1175ZM62.7451 42.2267L62.2489 41.1452L62.2441 41.1475L62.7451 42.2267ZM81.1463 37.126H79.9564V38.3159H81.1463V37.126ZM81.1463 22.5632V21.3733H79.9564V22.5632H81.1463ZM83.3009 22.5632H84.4908V21.3733H83.3009V22.5632ZM83.3009 37.126V38.3159H84.4908V37.126H83.3009ZM81.1554 19.6905L80.3156 20.5335L80.3242 20.5419L81.1554 19.6905ZM81.1554 17.5478L80.3242 16.6962L80.3157 16.7047L81.1554 17.5478ZM83.3192 17.5478L82.4794 18.3908L82.488 18.3992L83.3192 17.5478ZM83.3192 19.6905L82.488 18.8389L82.4794 18.8474L83.3192 19.6905ZM93.346 22.5632H94.5359V21.3733H93.346V22.5632ZM93.346 24.4594V25.6493H94.5359V24.4594H93.346ZM86.0787 24.4594H84.8888V25.6493H86.0787V24.4594ZM86.0787 22.5632V21.3733H84.8888V22.5632H86.0787ZM88.1968 19.0742V17.8843H87.0069V19.0742H88.1968ZM90.3514 19.0742H91.5413V17.8843H90.3514V19.0742ZM90.6162 34.3765L89.5773 34.9567L89.5841 34.9688L89.5912 34.9808L90.6162 34.3765ZM91.3101 35.0022L90.8837 36.1131L90.8985 36.1188L90.9135 36.1241L91.3101 35.0022ZM92.7982 35.116L92.9932 36.2898L93.0168 36.2859L93.0402 36.281L92.7982 35.116ZM93.1634 35.0401L94.326 34.7867L94.075 33.6355L92.9214 33.8751L93.1634 35.0401ZM93.6016 37.0501L94.0334 38.1589L94.9808 37.79L94.7642 36.7966L93.6016 37.0501ZM92.9899 37.2208L92.7372 36.058L92.7239 36.0609L92.7106 36.0641L92.9899 37.2208ZM90.2053 36.9079L89.6992 37.9848L89.7035 37.9868L90.2053 36.9079ZM88.7628 35.6659L87.7781 36.334L87.7832 36.3413L88.7628 35.6659ZM106.183 36.4907L105.528 37.4843L105.531 37.4862L106.183 36.4907ZM103.955 33.8645L102.878 34.3712L102.88 34.376L103.955 33.8645ZM103.955 25.9479L102.879 25.4387L102.877 25.4435L103.955 25.9479ZM106.183 23.3122L105.531 22.3167L105.528 22.3186L106.183 23.3122ZM112.838 23.3122L112.183 24.3057L112.186 24.3077L112.838 23.3122ZM115.066 25.9479L113.988 26.4523L113.99 26.457L115.066 25.9479ZM115.066 33.8645L113.991 33.353L113.989 33.3578L115.066 33.8645ZM112.838 36.4907L112.186 35.4953L112.183 35.4972L112.838 36.4907ZM111.889 34.6514L111.132 33.7334L111.889 34.6514ZM113.267 32.632L114.388 33.0325V33.0325L113.267 32.632ZM113.267 27.1994L114.389 26.8015V26.8015L113.267 27.1994ZM111.889 25.161L112.651 24.2475L111.889 25.161ZM107.141 25.161L106.379 24.2475L107.141 25.161ZM105.763 27.1994L104.641 26.8015H104.641L105.763 27.1994ZM105.763 32.632L104.642 33.0325V33.0325L105.763 32.632ZM107.141 34.6514L107.898 33.7334L107.141 34.6514ZM127.996 22.5632V21.3733H126.806V22.5632H127.996ZM130.151 22.5632H131.341V21.3733H130.151V22.5632ZM130.151 37.126V38.3159H131.341V37.126H130.151ZM127.996 37.126H126.806V38.3159H127.996V37.126ZM127.996 34.6609H129.186V33.471H127.996V34.6609ZM127.85 34.6609V33.471H127.077L126.763 34.1776L127.85 34.6609ZM126.316 36.5476L127.023 37.5051L127.028 37.5009L126.316 36.5476ZM121.349 36.7183L120.742 37.7416L120.749 37.7457L121.349 36.7183ZM119.743 34.8979L118.669 35.4109L118.671 35.4141L119.743 34.8979ZM119.158 22.5632V21.3733H117.968V22.5632H119.158ZM121.313 22.5632H122.503V21.3733H121.313V22.5632ZM122.171 34.2058L121.289 35.0044L121.293 35.009L122.171 34.2058ZM126.015 34.7273L125.476 33.6664L125.471 33.6688L126.015 34.7273ZM127.421 33.4189L126.424 32.7688L126.419 32.7761L127.421 33.4189ZM140.196 22.5632H141.386V21.3733H140.196V22.5632ZM140.196 24.4594V25.6493H141.386V24.4594H140.196ZM132.928 24.4594H131.738V25.6493H132.928V24.4594ZM132.928 22.5632V21.3733H131.738V22.5632H132.928ZM135.046 19.0742V17.8843H133.857V19.0742H135.046ZM137.201 19.0742H138.391V17.8843H137.201V19.0742ZM137.466 34.3765L136.427 34.9567L136.434 34.9688L136.441 34.9808L137.466 34.3765ZM138.16 35.0022L137.733 36.1131L137.748 36.1188L137.763 36.1241L138.16 35.0022ZM139.648 35.116L139.843 36.2898L139.867 36.2859L139.89 36.281L139.648 35.116ZM140.013 35.0401L141.176 34.7867L140.925 33.6355L139.771 33.8751L140.013 35.0401ZM140.451 37.0501L140.883 38.1589L141.831 37.79L141.614 36.7966L140.451 37.0501ZM139.84 37.2208L139.587 36.058L139.574 36.0609L139.56 36.0641L139.84 37.2208ZM137.055 36.9079L136.549 37.9848L136.553 37.9868L137.055 36.9079ZM135.613 35.6659L134.628 36.334L134.633 36.3413L135.613 35.6659ZM157.068 37.1573C156.612 37.6307 156.626 38.384 157.1 38.8398C157.573 39.2956 158.326 39.2814 158.782 38.8081L157.068 37.1573ZM171.125 24.275H172.315C172.315 23.6178 171.782 23.0851 171.125 23.0851V24.275ZM160.4 23.0851C159.743 23.0851 159.21 23.6178 159.21 24.275C159.21 24.9322 159.743 25.4649 160.4 25.4649V23.0851ZM169.935 34.9365C169.935 35.5937 170.468 36.1264 171.125 36.1264C171.782 36.1264 172.315 35.5937 172.315 34.9365H169.935ZM27.6667 3.1899H174.333V0.810096H27.6667V3.1899ZM174.333 54.1178H27.6667V56.4976H174.333V54.1178ZM27.6667 54.1178C14.1904 54.1178 3.1899 42.7599 3.1899 28.6538H0.810096C0.810096 43.9888 12.7923 56.4976 27.6667 56.4976V54.1178ZM198.81 28.6538C198.81 42.7599 187.81 54.1178 174.333 54.1178V56.4976C189.208 56.4976 201.19 43.9888 201.19 28.6538H198.81ZM174.333 3.1899C187.81 3.1899 198.81 14.5478 198.81 28.6538H201.19C201.19 13.3189 189.208 0.810096 174.333 0.810096V3.1899ZM27.6667 0.810096C12.7923 0.810096 0.810096 13.3189 0.810096 28.6538H3.1899C3.1899 14.5478 14.1904 3.1899 27.6667 3.1899V0.810096ZM45.1809 22.5632V24.4594H47.5607V22.5632H45.1809ZM46.3708 23.2695H39.1034V25.6493H46.3708V23.2695ZM40.2933 24.4594V22.5632H37.9135V24.4594H40.2933ZM39.1034 23.7531H46.3708V21.3733H39.1034V23.7531ZM41.2215 20.2641H43.3762V17.8843H41.2215V20.2641ZM42.1863 19.0742V32.9543H44.5661V19.0742H42.1863ZM42.1863 32.9543C42.1863 33.6582 42.2778 34.376 42.6021 34.9567L44.6798 33.7963C44.6511 33.7449 44.5661 33.5146 44.5661 32.9543H42.1863ZM42.6159 34.9808C42.907 35.4744 43.3302 35.8912 43.9085 36.1131L44.7612 33.8913C44.7607 33.8911 44.7604 33.891 44.7596 33.8905C44.7587 33.89 44.7549 33.8875 44.7483 33.8816C44.735 33.8696 44.7051 33.8386 44.666 33.7722L42.6159 34.9808ZM43.9382 36.1241C44.3571 36.2722 44.793 36.3438 45.2387 36.3438V33.964C45.0514 33.964 44.8847 33.9345 44.7314 33.8804L43.9382 36.1241ZM45.2387 36.3438C45.5106 36.3438 45.7768 36.3299 46.018 36.2898L45.6279 33.9422C45.5648 33.9527 45.4415 33.964 45.2387 33.964V36.3438ZM46.0649 36.281C46.2171 36.2494 46.3388 36.2242 46.4301 36.2052L45.9462 33.8751C45.8549 33.8941 45.7332 33.9194 45.581 33.951L46.0649 36.281ZM45.0256 35.2936L45.4638 37.3036L47.789 36.7966L47.3508 34.7867L45.0256 35.2936ZM46.1946 35.9413C46.1333 35.9652 45.9989 36.0065 45.762 36.058L46.2674 38.3835C46.5539 38.3213 46.8274 38.2488 47.0582 38.1589L46.1946 35.9413ZM45.7354 36.0641C45.598 36.0973 45.3684 36.1257 45.0196 36.1257V38.5055C45.4741 38.5055 45.908 38.4707 46.294 38.3774L45.7354 36.0641ZM45.0196 36.1257C44.5944 36.1257 44.1685 36.0321 43.7319 35.829L42.7283 37.9868C43.4603 38.3273 44.2274 38.5055 45.0196 38.5055V36.1257ZM43.7363 35.831C43.3597 35.654 43.0383 35.3837 42.7673 34.9905L40.8079 36.3413C41.3038 37.0605 41.9441 37.6182 42.7239 37.9848L43.7363 35.831ZM42.7723 34.9978C42.5597 34.6845 42.4114 34.2319 42.4114 33.5611H40.0316C40.0316 34.5843 40.2608 35.5349 40.8029 36.3339L42.7723 34.9978ZM42.4114 33.5611V19.0742H40.0316V33.5611H42.4114ZM50.8018 37.126V22.5632H48.4219V37.126H50.8018ZM49.6119 23.7531H51.6935V21.3733H49.6119V23.7531ZM50.5035 22.5632V24.7628H52.8834V22.5632H50.5035ZM51.6935 25.9527H51.8395V23.5729H51.6935V25.9527ZM52.9609 25.1606C53.1262 24.6947 53.4204 24.3118 53.8898 23.9972L52.5648 22.0204C51.6951 22.6033 51.0641 23.3897 50.7181 24.3649L52.9609 25.1606ZM53.8898 23.9972C54.3548 23.6855 54.8769 23.5255 55.4915 23.5255V21.1457C54.4261 21.1457 53.4388 21.4345 52.5648 22.0204L53.8898 23.9972ZM55.4915 23.5255C55.6353 23.5255 55.8218 23.5284 56.0532 23.5346L56.1166 21.1556C55.8733 21.1492 55.6641 21.1457 55.4915 21.1457V23.5255ZM56.0532 23.5346C56.2828 23.5407 56.4256 23.5493 56.5007 23.5571L56.7465 21.19C56.5781 21.1725 56.3618 21.1622 56.1166 21.1556L56.0532 23.5346ZM55.4337 22.3736V24.649H57.8135V22.3736H55.4337ZM56.9226 23.4973C56.7732 23.4585 56.5355 23.4213 56.2921 23.3861L55.9508 25.7413C56.0767 25.7595 56.1735 25.7746 56.2439 25.7865C56.279 25.7925 56.3042 25.7971 56.3209 25.8004C56.3402 25.8042 56.3386 25.8044 56.3246 25.8007L56.9226 23.4973ZM56.3243 23.3912C55.9953 23.3342 55.6561 23.3074 55.3089 23.3074V25.6872C55.5338 25.6872 55.7363 25.7046 55.9185 25.7361L56.3243 23.3912ZM55.3089 23.3074C54.4485 23.3074 53.6373 23.4966 52.9058 23.9023L54.06 25.9835C54.3998 25.7951 54.8058 25.6872 55.3089 25.6872V23.3074ZM52.9102 23.8999C52.1956 24.2922 51.621 24.8457 51.2022 25.5451L53.2438 26.7679C53.4458 26.4306 53.7111 26.1751 54.0556 25.9859L52.9102 23.8999ZM51.2001 25.5485C50.7754 26.2631 50.5766 27.0619 50.5766 27.9105H52.9564C52.9564 27.4443 53.062 27.0738 53.2458 26.7645L51.2001 25.5485ZM50.5766 27.9105V37.126H52.9564V27.9105H50.5766ZM51.7665 35.9361H49.6119V38.3159H51.7665V35.9361ZM60.9922 41.3971C60.6932 41.3971 60.4561 41.371 60.272 41.3303L59.7586 43.6541C60.1466 43.7398 60.5608 43.7769 60.9922 43.7769V41.3971ZM60.2474 41.3251C60.1247 41.3007 60.0381 41.2797 59.9812 41.2633C59.9534 41.2553 59.9384 41.2501 59.9336 41.2483C59.9275 41.246 59.9423 41.251 59.9702 41.2655L58.8735 43.3776C59.148 43.5201 59.4958 43.6021 59.7832 43.6592L60.2474 41.3251ZM60.5683 42.64L61.1161 40.668L58.8232 40.031L58.2754 42.0031L60.5683 42.64ZM59.6641 41.4995C60.2799 41.6631 60.8886 41.7406 61.4692 41.6858L61.2455 39.3166C61.0227 39.3376 60.7063 39.314 60.2752 39.1995L59.6641 41.4995ZM61.4692 41.6858C62.2008 41.6168 62.8172 41.2698 63.2984 40.7506L61.5528 39.1331C61.4131 39.2838 61.3173 39.3098 61.2455 39.3166L61.4692 41.6858ZM63.2827 40.7672C63.7728 40.2582 64.1313 39.537 64.4146 38.7365L62.1712 37.9425C61.931 38.6211 61.7113 38.9681 61.5685 39.1164L63.2827 40.7672ZM64.4149 38.7357L64.8166 37.598L62.5726 36.8056L62.1709 37.9434L64.4149 38.7357ZM64.8162 36.8045L59.6305 22.1659L57.3873 22.9605L62.573 37.5991L64.8162 36.8045ZM58.5089 23.7531H60.8461V21.3733H58.5089V23.7531ZM59.7173 22.9397L63.5884 34.5444L65.8459 33.7914L61.9749 22.1867L59.7173 22.9397ZM64.7172 35.3578H64.8632V32.978H64.7172V35.3578ZM65.992 34.5444L69.863 22.9397L67.6055 22.1867L63.7345 33.7914L65.992 34.5444ZM68.7343 23.7531H71.0715V21.3733H68.7343V23.7531ZM69.9508 22.1634L63.9981 38.8499L66.2396 39.6495L72.1922 22.963L69.9508 22.1634ZM63.9979 38.8506C63.7635 39.509 63.4896 40.0065 63.1957 40.3727L65.0518 41.8622C65.5491 41.2424 65.9387 40.4947 66.2398 39.6488L63.9979 38.8506ZM63.1911 40.3785C62.8993 40.7467 62.5844 40.9913 62.2489 41.1452L63.2414 43.3082C63.9527 42.9818 64.5568 42.4869 65.0564 41.8564L63.1911 40.3785ZM62.2441 41.1475C61.9045 41.3051 61.4949 41.3971 60.9922 41.3971V43.7769C61.792 43.7769 62.551 43.6287 63.2462 43.306L62.2441 41.1475ZM82.3362 37.126V22.5632H79.9564V37.126H82.3362ZM81.1463 23.7531H83.3009V21.3733H81.1463V23.7531ZM82.111 22.5632V37.126H84.4908V22.5632H82.111ZM83.3009 35.9361H81.1463V38.3159H83.3009V35.9361ZM82.2419 18.9462C82.1369 18.9462 82.0718 18.9221 81.9866 18.839L80.3242 20.5419C80.8477 21.0529 81.5069 21.326 82.2419 21.326V18.9462ZM81.9951 18.8474C81.9188 18.7713 81.8979 18.7167 81.8979 18.6191H79.5181C79.5181 19.3559 79.7956 20.0154 80.3157 20.5335L81.9951 18.8474ZM81.8979 18.6191C81.8979 18.5216 81.9188 18.4669 81.9951 18.3908L80.3157 16.7047C79.7956 17.2228 79.5181 17.8823 79.5181 18.6191H81.8979ZM81.9866 18.3992C82.0718 18.3161 82.1369 18.2921 82.2419 18.2921V15.9122C81.5069 15.9122 80.8477 16.1853 80.3242 16.6963L81.9866 18.3992ZM82.2419 18.2921C82.3462 18.2921 82.4036 18.3153 82.4794 18.3908L84.1589 16.7047C83.6382 16.1861 82.9774 15.9122 82.2419 15.9122V18.2921ZM82.488 18.3992C82.568 18.4773 82.5858 18.5295 82.5858 18.6191H84.9656C84.9656 17.8744 84.679 17.2124 84.1503 16.6963L82.488 18.3992ZM82.5858 18.6191C82.5858 18.7087 82.568 18.7609 82.488 18.839L84.1503 20.5419C84.679 20.0259 84.9656 19.3638 84.9656 18.6191H82.5858ZM82.4794 18.8474C82.4036 18.9229 82.3462 18.9462 82.2419 18.9462V21.326C82.9774 21.326 83.6382 21.0521 84.1589 20.5335L82.4794 18.8474ZM92.1561 22.5632V24.4594H94.5359V22.5632H92.1561ZM93.346 23.2695H86.0787V25.6493H93.346V23.2695ZM87.2686 24.4594V22.5632H84.8888V24.4594H87.2686ZM86.0787 23.7531H93.346V21.3733H86.0787V23.7531ZM88.1968 20.2641H90.3514V17.8843H88.1968V20.2641ZM89.1615 19.0742V32.9543H91.5413V19.0742H89.1615ZM89.1615 32.9543C89.1615 33.6582 89.253 34.376 89.5773 34.9567L91.655 33.7963C91.6263 33.7449 91.5413 33.5146 91.5413 32.9543H89.1615ZM89.5912 34.9808C89.8822 35.4744 90.3054 35.8912 90.8837 36.1131L91.7364 33.8913C91.7359 33.8911 91.7357 33.891 91.7348 33.8905C91.7339 33.89 91.7301 33.8875 91.7235 33.8816C91.7103 33.8696 91.6804 33.8386 91.6412 33.7722L89.5912 34.9808ZM90.9135 36.1241C91.3323 36.2722 91.7682 36.3438 92.2139 36.3438V33.964C92.0266 33.964 91.8599 33.9345 91.7066 33.8804L90.9135 36.1241ZM92.2139 36.3438C92.4858 36.3438 92.752 36.3299 92.9932 36.2898L92.6032 33.9422C92.5401 33.9527 92.4168 33.964 92.2139 33.964V36.3438ZM93.0402 36.281C93.1923 36.2494 93.3141 36.2242 93.4054 36.2052L92.9214 33.8751C92.8301 33.8941 92.7084 33.9194 92.5562 33.951L93.0402 36.281ZM92.0008 35.2936L92.439 37.3036L94.7642 36.7966L94.326 34.7867L92.0008 35.2936ZM93.1698 35.9413C93.1085 35.9652 92.9742 36.0065 92.7372 36.058L93.2427 38.3835C93.5292 38.3213 93.8026 38.2488 94.0334 38.1589L93.1698 35.9413ZM92.7106 36.0641C92.5732 36.0973 92.3437 36.1257 91.9948 36.1257V38.5055C92.4494 38.5055 92.8832 38.4707 93.2693 38.3774L92.7106 36.0641ZM91.9948 36.1257C91.5696 36.1257 91.1437 36.0321 90.7072 35.829L89.7035 37.9868C90.4356 38.3273 91.2027 38.5055 91.9948 38.5055V36.1257ZM90.7115 35.831C90.3349 35.654 90.0136 35.3837 89.7425 34.9905L87.7832 36.3413C88.279 37.0605 88.9193 37.6182 89.6992 37.9848L90.7115 35.831ZM89.7475 34.9978C89.5349 34.6845 89.3867 34.2319 89.3867 33.5611H87.0069C87.0069 34.5843 87.236 35.5349 87.7782 36.3339L89.7475 34.9978ZM89.3867 33.5611V19.0742H87.0069V33.5611H89.3867ZM109.515 36.2394C108.454 36.2394 107.576 35.9806 106.834 35.4953L105.531 37.4862C106.701 38.2524 108.043 38.6193 109.515 38.6193V36.2394ZM106.837 35.4972C106.086 35.0021 105.481 34.3015 105.029 33.353L102.88 34.376C103.5 35.6776 104.38 36.7278 105.528 37.4843L106.837 35.4972ZM105.031 33.3578C104.591 32.4209 104.35 31.2857 104.35 29.9204H101.971C101.971 31.5638 102.26 33.0579 102.878 34.3712L105.031 33.3578ZM104.35 29.9204C104.35 28.5411 104.591 27.3957 105.033 26.4523L102.877 25.4435C102.26 26.7629 101.971 28.2658 101.971 29.9204H104.35ZM105.03 26.457C105.482 25.5021 106.088 24.7997 106.837 24.3057L105.528 22.3186C104.378 23.0762 103.499 24.1309 102.879 25.4388L105.03 26.457ZM106.834 24.3077C107.576 23.8223 108.454 23.5635 109.515 23.5635V21.1837C108.043 21.1837 106.701 21.5506 105.531 22.3167L106.834 24.3077ZM109.515 23.5635C110.576 23.5635 111.45 23.8223 112.183 24.3057L113.493 22.3186C112.327 21.5505 110.986 21.1837 109.515 21.1837V23.5635ZM112.186 24.3077C112.94 24.8012 113.543 25.5015 113.988 26.4523L116.144 25.4435C115.529 24.1315 114.648 23.0747 113.49 22.3167L112.186 24.3077ZM113.99 26.457C114.436 27.3992 114.679 28.5429 114.679 29.9204H117.059C117.059 28.264 116.767 26.7594 116.141 25.4388L113.99 26.457ZM114.679 29.9204C114.679 31.2839 114.437 32.4174 113.991 33.353L116.14 34.376C116.766 33.0614 117.059 31.5656 117.059 29.9204H114.679ZM113.989 33.3578C113.545 34.3021 112.942 35.0007 112.186 35.4953L113.49 37.4862C114.646 36.7293 115.528 35.6771 116.142 34.3712L113.989 33.3578ZM112.183 35.4972C111.45 35.9806 110.576 36.2394 109.515 36.2394V38.6193C110.986 38.6193 112.327 38.2524 113.493 37.4843L112.183 35.4972ZM109.515 36.6093C110.697 36.6093 111.772 36.2899 112.646 35.5694L111.132 33.7334C110.764 34.0369 110.257 34.2295 109.515 34.2295V36.6093ZM112.646 35.5694C113.449 34.9074 114.025 34.0479 114.388 33.0325L112.147 32.2315C111.913 32.8847 111.57 33.3716 111.132 33.7334L112.646 35.5694ZM114.388 33.0325C114.736 32.0576 114.905 31.0169 114.905 29.9204H112.525C112.525 30.7707 112.395 31.5377 112.147 32.2315L114.388 33.0325ZM114.905 29.9204C114.905 28.8238 114.736 27.7811 114.389 26.8015L112.146 27.5972C112.395 28.299 112.525 29.0702 112.525 29.9204H114.905ZM114.389 26.8015C114.027 25.7813 113.452 24.9162 112.651 24.2475L111.126 26.0744C111.567 26.4423 111.911 26.9362 112.146 27.5972L114.389 26.8015ZM112.651 24.2475C111.778 23.5182 110.7 23.1936 109.515 23.1936V25.5734C110.253 25.5734 110.758 25.7671 111.126 26.0744L112.651 24.2475ZM109.515 23.1936C108.33 23.1936 107.252 23.5182 106.379 24.2475L107.904 26.0744C108.272 25.7671 108.777 25.5734 109.515 25.5734V23.1936ZM106.379 24.2475C105.578 24.9162 105.003 25.7813 104.641 26.8015L106.884 27.5972C107.118 26.9362 107.463 26.4423 107.904 26.0744L106.379 24.2475ZM104.641 26.8015C104.294 27.7811 104.125 28.8238 104.125 29.9204H106.505C106.505 29.0702 106.635 28.299 106.884 27.5972L104.641 26.8015ZM104.125 29.9204C104.125 31.0169 104.294 32.0576 104.642 33.0325L106.883 32.2315C106.635 31.5377 106.505 30.7707 106.505 29.9204H104.125ZM104.642 33.0325C105.005 34.0479 105.581 34.9074 106.384 35.5694L107.898 33.7334C107.459 33.3716 107.117 32.8847 106.883 32.2315L104.642 33.0325ZM106.384 35.5694C107.258 36.2899 108.333 36.6093 109.515 36.6093V34.2295C108.773 34.2295 108.266 34.0369 107.898 33.7334L106.384 35.5694ZM129.186 31.1719V22.5632H126.806V31.1719H129.186ZM127.996 23.7531H130.151V21.3733H127.996V23.7531ZM128.961 22.5632V37.126H131.341V22.5632H128.961ZM130.151 35.9361H127.996V38.3159H130.151V35.9361ZM129.186 37.126V34.6609H126.806V37.126H129.186ZM127.996 33.471H127.85V35.8508H127.996V33.471ZM126.763 34.1776C126.522 34.7179 126.146 35.1891 125.604 35.5943L127.028 37.5009C127.873 36.8695 128.52 36.083 128.937 35.1442L126.763 34.1776ZM125.61 35.5901C125.163 35.9195 124.551 36.1257 123.687 36.1257V38.5055C124.941 38.5055 126.081 38.1997 127.023 37.5051L125.61 35.5901ZM123.687 36.1257C122.997 36.1257 122.43 35.9712 121.95 35.6908L120.749 37.7457C121.633 38.2617 122.623 38.5055 123.687 38.5055V36.1257ZM121.957 35.695C121.502 35.4254 121.117 35.0086 120.815 34.3817L118.671 35.4141C119.148 36.4053 119.833 37.2021 120.742 37.7416L121.957 35.695ZM120.816 34.385C120.526 33.7777 120.348 32.9401 120.348 31.8166H117.968C117.968 33.1708 118.18 34.3874 118.669 35.4109L120.816 34.385ZM120.348 31.8166V22.5632H117.968V31.8166H120.348ZM119.158 23.7531H121.313V21.3733H119.158V23.7531ZM120.123 22.5632V31.6649H122.503V22.5632H120.123ZM120.123 31.6649C120.123 32.9464 120.473 34.1033 121.289 35.0043L123.053 33.4073C122.725 33.0442 122.503 32.5071 122.503 31.6649H120.123ZM121.293 35.009C122.108 35.8996 123.169 36.3438 124.381 36.3438V33.964C123.803 33.964 123.391 33.7762 123.049 33.4027L121.293 35.009ZM124.381 36.3438C125.134 36.3438 125.864 36.1425 126.558 35.7858L125.471 33.6688C125.058 33.8809 124.699 33.964 124.381 33.964V36.3438ZM126.554 35.7882C127.323 35.3975 127.944 34.8071 128.422 34.0617L126.419 32.7761C126.143 33.2064 125.827 33.4882 125.476 33.6664L126.554 35.7882ZM128.417 34.069C128.959 33.238 129.186 32.2453 129.186 31.1719H126.806C126.806 31.9189 126.649 32.4241 126.424 32.7688L128.417 34.069ZM139.006 22.5632V24.4594H141.386V22.5632H139.006ZM140.196 23.2695H132.928V25.6493H140.196V23.2695ZM134.118 24.4594V22.5632H131.738V24.4594H134.118ZM132.928 23.7531H140.196V21.3733H132.928V23.7531ZM135.046 20.2641H137.201V17.8843H135.046V20.2641ZM136.011 19.0742V32.9543H138.391V19.0742H136.011ZM136.011 32.9543C136.011 33.6582 136.103 34.376 136.427 34.9567L138.505 33.7963C138.476 33.7449 138.391 33.5146 138.391 32.9543H136.011ZM136.441 34.9808C136.732 35.4744 137.155 35.8912 137.733 36.1131L138.586 33.8913C138.586 33.8911 138.585 33.891 138.585 33.8905C138.584 33.89 138.58 33.8875 138.573 33.8816C138.56 33.8696 138.53 33.8386 138.491 33.7722L136.441 34.9808ZM137.763 36.1241C138.182 36.2722 138.618 36.3438 139.064 36.3438V33.964C138.876 33.964 138.71 33.9345 138.556 33.8804L137.763 36.1241ZM139.064 36.3438C139.335 36.3438 139.602 36.3299 139.843 36.2898L139.453 33.9422C139.39 33.9527 139.266 33.964 139.064 33.964V36.3438ZM139.89 36.281C140.042 36.2494 140.164 36.2242 140.255 36.2052L139.771 33.8751C139.68 33.8941 139.558 33.9194 139.406 33.951L139.89 36.281ZM138.851 35.2936L139.289 37.3036L141.614 36.7966L141.176 34.7867L138.851 35.2936ZM140.02 35.9413C139.958 35.9652 139.824 36.0065 139.587 36.058L140.092 38.3835C140.379 38.3213 140.652 38.2488 140.883 38.1589L140.02 35.9413ZM139.56 36.0641C139.423 36.0973 139.193 36.1257 138.844 36.1257V38.5055C139.299 38.5055 139.733 38.4707 140.119 38.3774L139.56 36.0641ZM138.844 36.1257C138.419 36.1257 137.993 36.0321 137.557 35.829L136.553 37.9868C137.285 38.3273 138.052 38.5055 138.844 38.5055V36.1257ZM137.561 35.831C137.185 35.654 136.863 35.3837 136.592 34.9905L134.633 36.3413C135.129 37.0605 135.769 37.6182 136.549 37.9848L137.561 35.831ZM136.597 34.9978C136.385 34.6845 136.236 34.2319 136.236 33.5611H133.857C133.857 34.5843 134.086 35.5349 134.628 36.3339L136.597 34.9978ZM136.236 33.5611V19.0742H133.857V33.5611H136.236ZM158.782 38.8081L171.982 25.1004L170.268 23.4496L157.068 37.1573L158.782 38.8081ZM171.125 23.0851H160.4V25.4649H171.125V23.0851ZM169.935 24.275V34.9365H172.315V24.275H169.935Z" fill="#38B854"/>
</svg>
